<svg id="USD" xmlns="http://www.w3.org/2000/svg" viewBox="0 0 39 39"><defs><style>.cls-1{fill:#fff;}.cls-2{fill:#ff424c;}.cls-3{fill:#3f4593;}</style></defs><title>USD</title><rect class="cls-1" width="39" height="39"/><rect class="cls-2" x="0.13" y="0.04" width="38.82" height="2.52"/><rect class="cls-2" x="0.13" y="5.17" width="38.8" height="2.61"/><rect class="cls-2" x="0.13" y="10.4" width="38.84" height="2.61"/><rect class="cls-2" x="0.02" y="15.62" width="38.98" height="2.61"/><rect class="cls-2" x="0.02" y="20.85" width="38.98" height="2.61"/><rect class="cls-2" x="0.06" y="36.35" width="38.9" height="2.61"/><rect class="cls-2" y="26.06" width="38.97" height="2.61"/><rect class="cls-2" x="0.03" y="31.29" width="38.94" height="2.61"/><rect class="cls-3" x="12.8" width="10.19" height="18.25"/><rect class="cls-3" y="0.03" width="13" height="18.22"/><g id="stars"><polygon class="cls-1" points="9.47 0.87 9.63 1.21 10.01 1.26 9.74 1.53 9.8 1.9 9.47 1.73 9.13 1.9 9.19 1.53 8.92 1.26 9.3 1.21 9.47 0.87"/><polygon class="cls-1" points="5.44 0.87 5.61 1.21 5.99 1.26 5.71 1.53 5.78 1.9 5.44 1.73 5.11 1.9 5.17 1.53 4.9 1.26 5.27 1.21 5.44 0.87"/><polygon class="cls-1" points="1.59 0.87 1.75 1.21 2.13 1.26 1.86 1.53 1.92 1.9 1.59 1.73 1.25 1.9 1.31 1.53 1.04 1.26 1.42 1.21 1.59 0.87"/><polygon class="cls-1" points="3.51 2.8 3.68 3.14 4.06 3.19 3.79 3.46 3.85 3.83 3.51 3.65 3.18 3.83 3.24 3.46 2.97 3.19 3.35 3.14 3.51 2.8"/><polygon class="cls-1" points="7.54 2.8 7.71 3.14 8.08 3.19 7.81 3.46 7.88 3.83 7.54 3.65 7.2 3.83 7.27 3.46 7 3.19 7.37 3.14 7.54 2.8"/><polygon class="cls-1" points="11.39 2.8 11.56 3.14 11.94 3.19 11.67 3.46 11.73 3.83 11.39 3.65 11.06 3.83 11.12 3.46 10.85 3.19 11.23 3.14 11.39 2.8"/><polygon class="cls-1" points="9.47 4.72 9.63 5.07 10.01 5.12 9.74 5.38 9.8 5.76 9.47 5.58 9.13 5.76 9.19 5.38 8.92 5.12 9.3 5.07 9.47 4.72"/><polygon class="cls-1" points="5.44 4.72 5.61 5.07 5.99 5.12 5.71 5.38 5.78 5.76 5.44 5.58 5.11 5.76 5.17 5.38 4.9 5.12 5.27 5.07 5.44 4.72"/><polygon class="cls-1" points="1.59 4.72 1.75 5.07 2.13 5.12 1.86 5.38 1.92 5.76 1.59 5.58 1.25 5.76 1.31 5.38 1.04 5.12 1.42 5.07 1.59 4.72"/><polygon class="cls-1" points="3.51 6.65 3.68 6.99 4.06 7.05 3.79 7.31 3.85 7.69 3.51 7.51 3.18 7.69 3.24 7.31 2.97 7.05 3.35 6.99 3.51 6.65"/><polygon class="cls-1" points="7.54 6.65 7.71 6.99 8.08 7.05 7.81 7.31 7.88 7.69 7.54 7.51 7.2 7.69 7.27 7.31 7 7.05 7.37 6.99 7.54 6.65"/><polygon class="cls-1" points="11.39 6.65 11.56 6.99 11.94 7.05 11.67 7.31 11.73 7.69 11.39 7.51 11.06 7.69 11.12 7.31 10.85 7.05 11.23 6.99 11.39 6.65"/><polygon class="cls-1" points="9.47 8.58 9.63 8.92 10.01 8.97 9.74 9.24 9.8 9.61 9.47 9.44 9.13 9.61 9.19 9.24 8.92 8.97 9.3 8.92 9.47 8.58"/><polygon class="cls-1" points="5.44 8.58 5.61 8.92 5.99 8.97 5.71 9.24 5.78 9.61 5.44 9.44 5.11 9.61 5.17 9.24 4.9 8.97 5.27 8.92 5.44 8.58"/><polygon class="cls-1" points="1.59 8.58 1.75 8.92 2.13 8.97 1.86 9.24 1.92 9.61 1.59 9.44 1.25 9.61 1.31 9.24 1.04 8.97 1.42 8.92 1.59 8.58"/><polygon class="cls-1" points="3.51 10.51 3.68 10.85 4.06 10.9 3.79 11.17 3.85 11.54 3.51 11.36 3.18 11.54 3.24 11.17 2.97 10.9 3.35 10.85 3.51 10.51"/><polygon class="cls-1" points="7.54 10.51 7.71 10.85 8.08 10.9 7.81 11.17 7.88 11.54 7.54 11.36 7.2 11.54 7.27 11.17 7 10.9 7.37 10.85 7.54 10.51"/><polygon class="cls-1" points="11.39 10.51 11.56 10.85 11.94 10.9 11.67 11.17 11.73 11.54 11.39 11.36 11.06 11.54 11.12 11.17 10.85 10.9 11.23 10.85 11.39 10.51"/><polygon class="cls-1" points="21.41 0.92 21.57 1.26 21.95 1.32 21.68 1.58 21.74 1.96 21.41 1.78 21.07 1.96 21.13 1.58 20.86 1.32 21.24 1.26 21.41 0.92"/><polygon class="cls-1" points="17.38 0.92 17.55 1.26 17.93 1.32 17.65 1.58 17.72 1.96 17.38 1.78 17.05 1.96 17.11 1.58 16.84 1.32 17.21 1.26 17.38 0.92"/><polygon class="cls-1" points="13.53 0.92 13.7 1.26 14.07 1.32 13.8 1.58 13.86 1.96 13.53 1.78 13.19 1.96 13.26 1.58 12.98 1.32 13.36 1.26 13.53 0.92"/><polygon class="cls-1" points="15.45 2.85 15.62 3.19 16 3.25 15.73 3.51 15.79 3.89 15.45 3.71 15.12 3.89 15.18 3.51 14.91 3.25 15.29 3.19 15.45 2.85"/><polygon class="cls-1" points="19.48 2.85 19.65 3.19 20.02 3.25 19.75 3.51 19.82 3.89 19.48 3.71 19.14 3.89 19.21 3.51 18.93 3.25 19.31 3.19 19.48 2.85"/><polygon class="cls-1" points="21.41 4.78 21.57 5.12 21.95 5.17 21.68 5.44 21.74 5.81 21.41 5.64 21.07 5.81 21.13 5.44 20.86 5.17 21.24 5.12 21.41 4.78"/><polygon class="cls-1" points="17.38 4.78 17.55 5.12 17.93 5.17 17.65 5.44 17.72 5.81 17.38 5.64 17.05 5.81 17.11 5.44 16.84 5.17 17.21 5.12 17.38 4.78"/><polygon class="cls-1" points="13.53 4.78 13.7 5.12 14.07 5.17 13.8 5.44 13.86 5.81 13.53 5.64 13.19 5.81 13.26 5.44 12.98 5.17 13.36 5.12 13.53 4.78"/><polygon class="cls-1" points="15.45 6.71 15.62 7.05 16 7.1 15.73 7.37 15.79 7.74 15.45 7.56 15.12 7.74 15.18 7.37 14.91 7.1 15.29 7.05 15.45 6.71"/><polygon class="cls-1" points="19.48 6.71 19.65 7.05 20.02 7.1 19.75 7.37 19.82 7.74 19.48 7.56 19.14 7.74 19.21 7.37 18.93 7.1 19.31 7.05 19.48 6.71"/><polygon class="cls-1" points="21.41 8.63 21.57 8.97 21.95 9.03 21.68 9.29 21.74 9.67 21.41 9.49 21.07 9.67 21.13 9.29 20.86 9.03 21.24 8.97 21.41 8.63"/><polygon class="cls-1" points="17.38 8.63 17.55 8.97 17.93 9.03 17.65 9.29 17.72 9.67 17.38 9.49 17.05 9.67 17.11 9.29 16.84 9.03 17.21 8.97 17.38 8.63"/><polygon class="cls-1" points="13.53 8.63 13.7 8.97 14.07 9.03 13.8 9.29 13.86 9.67 13.53 9.49 13.19 9.67 13.26 9.29 12.98 9.03 13.36 8.97 13.53 8.63"/><polygon class="cls-1" points="15.45 10.56 15.62 10.9 16 10.96 15.73 11.22 15.79 11.6 15.45 11.42 15.12 11.6 15.18 11.22 14.91 10.96 15.29 10.9 15.45 10.56"/><polygon class="cls-1" points="19.48 10.56 19.65 10.9 20.02 10.96 19.75 11.22 19.82 11.6 19.48 11.42 19.14 11.6 19.21 11.22 18.93 10.96 19.31 10.9 19.48 10.56"/><polygon class="cls-1" points="9.47 12.43 9.63 12.77 10.01 12.83 9.74 13.09 9.8 13.47 9.47 13.29 9.13 13.47 9.19 13.09 8.92 12.83 9.3 12.77 9.47 12.43"/><polygon class="cls-1" points="5.44 12.43 5.61 12.77 5.99 12.83 5.71 13.09 5.78 13.47 5.44 13.29 5.11 13.47 5.17 13.09 4.9 12.83 5.27 12.77 5.44 12.43"/><polygon class="cls-1" points="1.59 12.43 1.75 12.77 2.13 12.83 1.86 13.09 1.92 13.47 1.59 13.29 1.25 13.47 1.31 13.09 1.04 12.83 1.42 12.77 1.59 12.43"/><polygon class="cls-1" points="3.51 14.36 3.68 14.7 4.06 14.76 3.79 15.02 3.85 15.4 3.51 15.22 3.18 15.4 3.24 15.02 2.97 14.76 3.35 14.7 3.51 14.36"/><polygon class="cls-1" points="7.54 14.36 7.71 14.7 8.08 14.76 7.81 15.02 7.88 15.4 7.54 15.22 7.2 15.4 7.27 15.02 7 14.76 7.37 14.7 7.54 14.36"/><polygon class="cls-1" points="11.39 14.36 11.56 14.7 11.94 14.76 11.67 15.02 11.73 15.4 11.39 15.22 11.06 15.4 11.12 15.02 10.85 14.76 11.23 14.7 11.39 14.36"/><polygon class="cls-1" points="9.47 16.29 9.63 16.63 10.01 16.68 9.74 16.95 9.8 17.32 9.47 17.15 9.13 17.32 9.19 16.95 8.92 16.68 9.3 16.63 9.47 16.29"/><polygon class="cls-1" points="5.44 16.29 5.61 16.63 5.99 16.68 5.71 16.95 5.78 17.32 5.44 17.15 5.11 17.32 5.17 16.95 4.9 16.68 5.27 16.63 5.44 16.29"/><polygon class="cls-1" points="1.59 16.29 1.75 16.63 2.13 16.68 1.86 16.95 1.92 17.32 1.59 17.15 1.25 17.32 1.31 16.95 1.04 16.68 1.42 16.63 1.59 16.29"/><polygon class="cls-1" points="21.41 12.49 21.57 12.83 21.95 12.88 21.68 13.15 21.74 13.52 21.41 13.35 21.07 13.52 21.13 13.15 20.86 12.88 21.24 12.83 21.41 12.49"/><polygon class="cls-1" points="17.38 12.49 17.55 12.83 17.93 12.88 17.65 13.15 17.72 13.52 17.38 13.35 17.05 13.52 17.11 13.15 16.84 12.88 17.21 12.83 17.38 12.49"/><polygon class="cls-1" points="13.53 12.49 13.7 12.83 14.07 12.88 13.8 13.15 13.86 13.52 13.53 13.35 13.19 13.52 13.26 13.15 12.98 12.88 13.36 12.83 13.53 12.49"/><polygon class="cls-1" points="15.45 14.42 15.62 14.76 16 14.81 15.73 15.08 15.79 15.45 15.45 15.27 15.12 15.45 15.18 15.08 14.91 14.81 15.29 14.76 15.45 14.42"/><polygon class="cls-1" points="19.48 14.41 19.65 14.76 20.02 14.81 19.75 15.08 19.82 15.45 19.48 15.27 19.14 15.45 19.21 15.08 18.93 14.81 19.31 14.76 19.48 14.41"/><polygon class="cls-1" points="21.41 16.34 21.57 16.68 21.95 16.74 21.68 17 21.74 17.38 21.41 17.2 21.07 17.38 21.13 17 20.86 16.74 21.24 16.68 21.41 16.34"/><polygon class="cls-1" points="17.38 16.34 17.55 16.68 17.93 16.74 17.65 17 17.72 17.38 17.38 17.2 17.05 17.38 17.11 17 16.84 16.74 17.21 16.68 17.38 16.34"/><polygon class="cls-1" points="13.53 16.34 13.7 16.68 14.07 16.74 13.8 17 13.86 17.38 13.53 17.2 13.19 17.38 13.26 17 12.98 16.74 13.36 16.68 13.53 16.34"/></g></svg>